<?xml version="1.0" encoding="UTF-8" standalone="no"?><svg xmlns="http://www.w3.org/2000/svg" xmlns:xlink="http://www.w3.org/1999/xlink" contentScriptType="application/ecmascript" contentStyleType="text/css" height="691px" preserveAspectRatio="none" style="width:1150px;height:691px;" version="1.1" viewBox="0 0 1150 691" width="1150px" zoomAndPan="magnify"><defs><filter height="300%" id="fctu3z4nw1lha" width="300%" x="-1" y="-1"><feGaussianBlur result="blurOut" stdDeviation="2.0"/><feColorMatrix in="blurOut" result="blurOut2" type="matrix" values="0 0 0 0 0 0 0 0 0 0 0 0 0 0 0 0 0 0 .4 0"/><feOffset dx="4.0" dy="4.0" in="blurOut2" result="blurOut3"/><feBlend in="SourceGraphic" in2="blurOut3" mode="normal"/></filter></defs><g><!--cluster jellyfishaudits--><polygon fill="#FFFFFF" filter="url(#fctu3z4nw1lha)" points="535,258,649,258,656,280.2969,797,280.2969,797,346,535,346,535,258" style="stroke: #000000; stroke-width: 1.5;"/><line style="stroke: #000000; stroke-width: 1.5;" x1="535" x2="656" y1="280.2969" y2="280.2969"/><text fill="#000000" font-family="sans-serif" font-size="14" font-weight="bold" lengthAdjust="spacingAndGlyphs" textLength="108" x="539" y="272.9951">jellyfishaudits</text><!--cluster analyze.py--><polygon fill="#FFFFFF" filter="url(#fctu3z4nw1lha)" points="22,24,112,24,119,46.2969,511,46.2969,511,462,22,462,22,24" style="stroke: #000000; stroke-width: 1.5;"/><line style="stroke: #000000; stroke-width: 1.5;" x1="22" x2="119" y1="46.2969" y2="46.2969"/><text fill="#000000" font-family="sans-serif" font-size="14" font-weight="bold" lengthAdjust="spacingAndGlyphs" textLength="84" x="26" y="38.9951">analyze.py</text><!--cluster jellyfish2--><path d="M276,586 C276,576 514.5,576 514.5,576 C514.5,576 753,576 753,586 L753,669 C753,679 514.5,679 514.5,679 C514.5,679 276,679 276,669 L276,586 " fill="#FFFFFF" filter="url(#fctu3z4nw1lha)" style="stroke: #000000; stroke-width: 1.5;"/><path d="M276,586 C276,596 514.5,596 514.5,596 C514.5,596 753,596 753,586 " fill="none" style="stroke: #000000; stroke-width: 1.5;"/><text fill="#000000" font-family="sans-serif" font-size="14" font-weight="bold" lengthAdjust="spacingAndGlyphs" textLength="70" x="479.5" y="609.9951">jellyfish2</text><!--entity bassaudits--><rect fill="#FEFECE" filter="url(#fctu3z4nw1lha)" height="36.2969" style="stroke: #A80036; stroke-width: 1.5;" width="95" x="551.75" y="294"/><rect fill="#FEFECE" height="5" style="stroke: #A80036; stroke-width: 1.5;" width="10" x="546.75" y="299"/><rect fill="#FEFECE" height="5" style="stroke: #A80036; stroke-width: 1.5;" width="10" x="546.75" y="320.2969"/><text fill="#000000" font-family="sans-serif" font-size="14" lengthAdjust="spacingAndGlyphs" textLength="75" x="561.75" y="316.9951">bassaudits</text><!--entity staticaudits--><rect fill="#FEFECE" filter="url(#fctu3z4nw1lha)" height="36.2969" style="stroke: #A80036; stroke-width: 1.5;" width="99" x="681.75" y="294"/><rect fill="#FEFECE" height="5" style="stroke: #A80036; stroke-width: 1.5;" width="10" x="676.75" y="299"/><rect fill="#FEFECE" height="5" style="stroke: #A80036; stroke-width: 1.5;" width="10" x="676.75" y="320.2969"/><text fill="#000000" font-family="sans-serif" font-size="14" lengthAdjust="spacingAndGlyphs" textLength="79" x="691.75" y="316.9951">staticaudits</text><!--entity analyze--><rect fill="#FEFECE" filter="url(#fctu3z4nw1lha)" height="36.2969" style="stroke: #A80036; stroke-width: 1.5;" width="72" x="423" y="60"/><rect fill="#FEFECE" height="5" style="stroke: #A80036; stroke-width: 1.5;" width="10" x="418" y="65"/><rect fill="#FEFECE" height="5" style="stroke: #A80036; stroke-width: 1.5;" width="10" x="418" y="86.2969"/><text fill="#000000" font-family="sans-serif" font-size="14" lengthAdjust="spacingAndGlyphs" textLength="52" x="433" y="82.9951">analyze</text><!--entity generic_large_compare--><rect fill="#FEFECE" filter="url(#fctu3z4nw1lha)" height="36.2969" style="stroke: #A80036; stroke-width: 1.5;" width="181" x="38.75" y="174"/><rect fill="#FEFECE" height="5" style="stroke: #A80036; stroke-width: 1.5;" width="10" x="33.75" y="179"/><rect fill="#FEFECE" height="5" style="stroke: #A80036; stroke-width: 1.5;" width="10" x="33.75" y="200.2969"/><text fill="#000000" font-family="sans-serif" font-size="14" lengthAdjust="spacingAndGlyphs" textLength="161" x="48.75" y="196.9951">generic_large_compare</text><!--entity subtype_large_compare--><rect fill="#FEFECE" filter="url(#fctu3z4nw1lha)" height="36.2969" style="stroke: #A80036; stroke-width: 1.5;" width="185" x="254.75" y="174"/><rect fill="#FEFECE" height="5" style="stroke: #A80036; stroke-width: 1.5;" width="10" x="249.75" y="179"/><rect fill="#FEFECE" height="5" style="stroke: #A80036; stroke-width: 1.5;" width="10" x="249.75" y="200.2969"/><text fill="#000000" font-family="sans-serif" font-size="14" lengthAdjust="spacingAndGlyphs" textLength="165" x="264.75" y="196.9951">subtype_large_compare</text><!--entity generic_large_analysis_store--><rect fill="#FEFECE" filter="url(#fctu3z4nw1lha)" height="36.2969" style="stroke: #A80036; stroke-width: 1.5;" width="217" x="105.75" y="410"/><rect fill="#FEFECE" height="5" style="stroke: #A80036; stroke-width: 1.5;" width="10" x="100.75" y="415"/><rect fill="#FEFECE" height="5" style="stroke: #A80036; stroke-width: 1.5;" width="10" x="100.75" y="436.2969"/><text fill="#000000" font-family="sans-serif" font-size="14" lengthAdjust="spacingAndGlyphs" textLength="197" x="115.75" y="432.9951">generic_large_analysis_store</text><!--entity collections--><rect fill="#FEFECE" filter="url(#fctu3z4nw1lha)" height="36.2969" style="stroke: #A80036; stroke-width: 1.5;" width="94" x="451" y="627"/><rect fill="#FEFECE" height="5" style="stroke: #A80036; stroke-width: 1.5;" width="10" x="446" y="632"/><rect fill="#FEFECE" height="5" style="stroke: #A80036; stroke-width: 1.5;" width="10" x="446" y="653.2969"/><text fill="#000000" font-family="sans-serif" font-size="14" lengthAdjust="spacingAndGlyphs" textLength="74" x="461" y="649.9951">collections</text><!--entity hosts--><rect fill="#FEFECE" filter="url(#fctu3z4nw1lha)" height="36.2969" style="stroke: #A80036; stroke-width: 1.5;" width="59" x="580.75" y="627"/><rect fill="#FEFECE" height="5" style="stroke: #A80036; stroke-width: 1.5;" width="10" x="575.75" y="632"/><rect fill="#FEFECE" height="5" style="stroke: #A80036; stroke-width: 1.5;" width="10" x="575.75" y="653.2969"/><text fill="#000000" font-family="sans-serif" font-size="14" lengthAdjust="spacingAndGlyphs" textLength="39" x="590.75" y="649.9951">hosts</text><!--entity audits--><rect fill="#FEFECE" filter="url(#fctu3z4nw1lha)" height="36.2969" style="stroke: #A80036; stroke-width: 1.5;" width="62" x="675.5" y="627"/><rect fill="#FEFECE" height="5" style="stroke: #A80036; stroke-width: 1.5;" width="10" x="670.5" y="632"/><rect fill="#FEFECE" height="5" style="stroke: #A80036; stroke-width: 1.5;" width="10" x="670.5" y="653.2969"/><text fill="#000000" font-family="sans-serif" font-size="14" lengthAdjust="spacingAndGlyphs" textLength="42" x="685.5" y="649.9951">audits</text><!--entity audits_by_host--><rect fill="#FEFECE" filter="url(#fctu3z4nw1lha)" height="36.2969" style="stroke: #A80036; stroke-width: 1.5;" width="123" x="292.75" y="627"/><rect fill="#FEFECE" height="5" style="stroke: #A80036; stroke-width: 1.5;" width="10" x="287.75" y="632"/><rect fill="#FEFECE" height="5" style="stroke: #A80036; stroke-width: 1.5;" width="10" x="287.75" y="653.2969"/><text fill="#000000" font-family="sans-serif" font-size="14" lengthAdjust="spacingAndGlyphs" textLength="103" x="302.75" y="649.9951">audits_by_host</text><!--link analyze to bassaudits--><path d="M495.33,93.327 C510.679,100.987 527.602,111.808 539,126 C578.497,175.181 592.3,251.099 596.876,288.542 " fill="none" id="analyze-bassaudits" style="stroke: #A80036; stroke-width: 1.0;"/><polygon fill="#A80036" points="597.486,293.78,600.4179,284.3776,596.9075,288.8136,592.4716,285.3032,597.486,293.78" style="stroke: #A80036; stroke-width: 1.0;"/><text fill="#000000" font-family="sans-serif" font-size="13" lengthAdjust="spacingAndGlyphs" textLength="32" x="582" y="196.0669">Uses</text><!--link analyze to staticaudits--><path d="M495.077,90.606 C517.811,98.756 547.248,110.889 571,126 C639.167,169.369 694.389,250.463 718.253,289.25 " fill="none" id="analyze-staticaudits" style="stroke: #A80036; stroke-width: 1.0;"/><polygon fill="#A80036" points="721.007,293.765,719.7366,283.9984,718.4039,289.4961,712.9063,288.1634,721.007,293.765" style="stroke: #A80036; stroke-width: 1.0;"/><text fill="#000000" font-family="sans-serif" font-size="13" lengthAdjust="spacingAndGlyphs" textLength="32" x="661" y="196.0669">Uses</text><!--link analyze to audits--><path d="M495.354,79.11 C613.035,80.435 976,92.503 976,191 C976,191 976,191 976,520 C976,621.8796 815.283,640.365 741.843,643.4937 " fill="none" id="analyze-audits" style="stroke: #A80036; stroke-width: 1.0;"/><polygon fill="#A80036" points="736.71,643.6934,745.8586,647.3407,741.7062,643.4991,745.5478,639.3467,736.71,643.6934" style="stroke: #A80036; stroke-width: 1.0;"/><text fill="#000000" font-family="sans-serif" font-size="13" lengthAdjust="spacingAndGlyphs" textLength="161" x="977" y="375.0669">Stores or Updates Audits</text><!--link analyze to hosts--><path d="M500.398,82.53 C597.931,91.984 834,121.996 834,191 C834,191 834,191 834,520 C834,601.0791 723.185,519.784 658,568 C639.422,581.742 626.276,605.0148 618.494,622.1946 " fill="none" id="analyze-hosts" style="stroke: #A80036; stroke-width: 1.0;"/><polygon fill="#A80036" points="616.441,626.8656,623.7242,620.2357,618.4528,622.2882,616.4004,617.0168,616.441,626.8656" style="stroke: #A80036; stroke-width: 1.0;"/><polygon fill="#A80036" points="495.297,82.042,503.8756,86.8802,500.2743,82.5177,504.6368,78.9165,495.297,82.042" style="stroke: #A80036; stroke-width: 1.0;"/><text fill="#000000" font-family="sans-serif" font-size="13" lengthAdjust="spacingAndGlyphs" textLength="99" x="835" y="375.0669">grab_host_list()</text><!--link analyze to generic_large_compare--><path d="M417.523,79.198 C339.996,80.484 177.469,87.793 139,126 C127.961,136.964 125.841,154.672 126.272,168.839 " fill="none" id="analyze-generic_large_compare" style="stroke: #A80036; stroke-width: 1.0;"/><polygon fill="#A80036" points="126.535,173.879,130.0589,164.6822,126.2736,168.8858,122.0699,165.1005,126.535,173.879" style="stroke: #A80036; stroke-width: 1.0;"/><polygon fill="#A80036" points="422.955,79.116,413.8955,75.2527,417.9556,79.1917,414.0166,83.2518,422.955,79.116" style="stroke: #A80036; stroke-width: 1.0;"/><text fill="#000000" font-family="sans-serif" font-size="13" lengthAdjust="spacingAndGlyphs" textLength="188" x="140" y="139.0669">Check for Passing And Failure</text><!--link analyze to subtype_large_compare--><path d="M417.896,84.198 C391.976,89.836 360.403,101.576 344,126 C335.715,138.336 336.736,155.156 339.688,168.595 " fill="none" id="analyze-subtype_large_compare" style="stroke: #A80036; stroke-width: 1.0;"/><polygon fill="#A80036" points="340.948,173.75,342.6968,164.0577,339.7609,168.893,334.9256,165.957,340.948,173.75" style="stroke: #A80036; stroke-width: 1.0;"/><polygon fill="#A80036" points="422.998,83.149,413.3768,81.0434,418.1004,84.1559,414.9879,88.8795,422.998,83.149" style="stroke: #A80036; stroke-width: 1.0;"/><text fill="#000000" font-family="sans-serif" font-size="13" lengthAdjust="spacingAndGlyphs" textLength="188" x="345" y="139.0669">Check for Passing And Failure</text><!--link generic_large_compare to collections--><path d="M219.448,209.984 C283.233,222.685 359.319,239.589 371,250 C392.515,269.176 393,282.18 393,311 C393,311 393,311 393,520 C393,523.304 449.256,588.207 479.413,622.762 " fill="none" id="generic_large_compare-collections" style="stroke: #A80036; stroke-width: 1.0;"/><polygon fill="#A80036" points="482.956,626.8194,480.0506,617.4088,479.6678,623.0527,474.0239,622.6699,482.956,626.8194" style="stroke: #A80036; stroke-width: 1.0;"/><text fill="#000000" font-family="sans-serif" font-size="13" lengthAdjust="spacingAndGlyphs" textLength="32" x="394" y="432.0669">Uses</text><!--link subtype_large_compare to collections--><path d="M400.237,210.041 C443.711,227.679 498,259.93 498,311 C498,311 498,311 498,520 C498,555.574 498,596.8883 498,621.7101 " fill="none" id="subtype_large_compare-collections" style="stroke: #A80036; stroke-width: 1.0;"/><polygon fill="#A80036" points="498,626.7485,502,617.7485,498,621.7485,494,617.7485,498,626.7485" style="stroke: #A80036; stroke-width: 1.0;"/><text fill="#000000" font-family="sans-serif" font-size="13" lengthAdjust="spacingAndGlyphs" textLength="32" x="499" y="432.0669">Uses</text><!--link generic_large_compare to generic_large_analysis_store--><path d="M121.134,210.12 C108.262,240.837 86.4601,306.529 111,354 C123.263,377.721 147.182,395.398 168.886,407.411 " fill="none" id="generic_large_compare-generic_large_analysis_store" style="stroke: #A80036; stroke-width: 1.0;"/><polygon fill="#A80036" points="173.479,409.888,167.457,402.0947,169.0784,407.5142,163.6589,409.1356,173.479,409.888" style="stroke: #A80036; stroke-width: 1.0;"/><text fill="#000000" font-family="sans-serif" font-size="13" lengthAdjust="spacingAndGlyphs" textLength="90" x="112" y="316.0669">Sends Results</text><!--link subtype_large_compare to generic_large_analysis_store--><path d="M337.22,210.207 C313.441,252.044 252.626,359.041 226.374,405.23 " fill="none" id="subtype_large_compare-generic_large_analysis_store" style="stroke: #A80036; stroke-width: 1.0;"/><polygon fill="#A80036" points="223.794,409.768,231.7179,403.919,226.2641,405.4207,224.7623,399.9669,223.794,409.768" style="stroke: #A80036; stroke-width: 1.0;"/><text fill="#000000" font-family="sans-serif" font-size="13" lengthAdjust="spacingAndGlyphs" textLength="90" x="316" y="316.0669">Sends Results</text><!--link generic_large_analysis_store to audits_by_host--><path d="M223.421,446.081 C234.555,466.027 253.866,499.873 272,528 C293.764,561.758 321.024,599.5125 337.979,622.5152 " fill="none" id="generic_large_analysis_store-audits_by_host" style="stroke: #A80036; stroke-width: 1.0;"/><polygon fill="#A80036" points="341.021,626.6343,338.8912,617.0185,338.0503,622.6125,332.4563,621.7716,341.021,626.6343" style="stroke: #A80036; stroke-width: 1.0;"/><text fill="#000000" font-family="sans-serif" font-size="13" lengthAdjust="spacingAndGlyphs" textLength="92" x="273" y="523.0669">Stores Results</text><!--
@startuml

package "jellyfishaudits" {
	[bassaudits]
	[staticaudits]
}

package "analyze.py" {
	[analyze]
	[generic_large_compare]
	[subtype_large_compare]
	[generic_large_analysis_store]
}

database "jellyfish2" {
	[collections]
	[hosts]
	[audits]
	[audits_by_host]
}

[analyze] - - -> [bassaudits] : Uses
[analyze] - - -> [staticaudits] : Uses
[analyze] - - -> [audits] : Stores or Updates Audits
[analyze] <- -> [hosts] : grab_host_list()
[analyze] <- -> [generic_large_compare] : Check for Passing And Failure
[analyze] <- -> [subtype_large_compare] : Check for Passing And Failure
[generic_large_compare] - - -> [collections] : Uses
[subtype_large_compare] - - -> [collections] : Uses
[generic_large_compare] - - -> [generic_large_analysis_store] : Sends Results
[subtype_large_compare] - - -> [generic_large_analysis_store] : Sends Results
[generic_large_analysis_store] - - -> [audits_by_host] : Stores Results


@enduml

PlantUML version 1.2018.02(Fri Mar 09 17:20:44 UTC 2018)
(GPL source distribution)
Java Runtime: Java(TM) SE Runtime Environment
JVM: Java HotSpot(TM) 64-Bit Server VM
Java Version: 1.8.0_151-b12
Operating System: Linux
OS Version: 4.4.0-101-generic
Default Encoding: UTF-8
Language: en
Country: US
--></g></svg>