<?xml version="1.0" encoding="UTF-8" standalone="no"?><svg xmlns="http://www.w3.org/2000/svg" xmlns:xlink="http://www.w3.org/1999/xlink" contentScriptType="application/ecmascript" contentStyleType="text/css" height="697px" preserveAspectRatio="none" style="width:1027px;height:697px;" version="1.1" viewBox="0 0 1027 697" width="1027px" zoomAndPan="magnify"><defs><filter height="300%" id="f1jzbiozb9gm4v" width="300%" x="-1" y="-1"><feGaussianBlur result="blurOut" stdDeviation="2.0"/><feColorMatrix in="blurOut" result="blurOut2" type="matrix" values="0 0 0 0 0 0 0 0 0 0 0 0 0 0 0 0 0 0 .4 0"/><feOffset dx="4.0" dy="4.0" in="blurOut2" result="blurOut3"/><feBlend in="SourceGraphic" in2="blurOut3" mode="normal"/></filter></defs><g><!--cluster collate.py--><polygon fill="#FFFFFF" filter="url(#f1jzbiozb9gm4v)" points="22,24,104,24,111,46.2969,700,46.2969,700,468,22,468,22,24" style="stroke: #000000; stroke-width: 1.5;"/><line style="stroke: #000000; stroke-width: 1.5;" x1="22" x2="111" y1="46.2969" y2="46.2969"/><text fill="#000000" font-family="sans-serif" font-size="14" font-weight="bold" lengthAdjust="spacingAndGlyphs" textLength="76" x="26" y="38.9951">collate.py</text><!--cluster jellyfish2--><path d="M84,592 C84,582 407,582 407,582 C407,582 730,582 730,592 L730,675 C730,685 407,685 407,685 C407,685 84,685 84,675 L84,592 " fill="#FFFFFF" filter="url(#f1jzbiozb9gm4v)" style="stroke: #000000; stroke-width: 1.5;"/><path d="M84,592 C84,602 407,602 407,602 C407,602 730,602 730,592 " fill="none" style="stroke: #000000; stroke-width: 1.5;"/><text fill="#000000" font-family="sans-serif" font-size="14" font-weight="bold" lengthAdjust="spacingAndGlyphs" textLength="70" x="372" y="615.9951">jellyfish2</text><!--entity grab_all_table_data--><rect fill="#FEFECE" filter="url(#f1jzbiozb9gm4v)" height="36.2969" style="stroke: #A80036; stroke-width: 1.5;" width="150" x="261.5" y="60"/><rect fill="#FEFECE" height="5" style="stroke: #A80036; stroke-width: 1.5;" width="10" x="256.5" y="65"/><rect fill="#FEFECE" height="5" style="stroke: #A80036; stroke-width: 1.5;" width="10" x="256.5" y="86.2969"/><text fill="#000000" font-family="sans-serif" font-size="14" lengthAdjust="spacingAndGlyphs" textLength="130" x="271.5" y="82.9951">grab_all_table_data</text><!--entity grab_multiple_collated--><rect fill="#FEFECE" filter="url(#f1jzbiozb9gm4v)" height="36.2969" style="stroke: #A80036; stroke-width: 1.5;" width="173" x="38.75" y="238"/><rect fill="#FEFECE" height="5" style="stroke: #A80036; stroke-width: 1.5;" width="10" x="33.75" y="243"/><rect fill="#FEFECE" height="5" style="stroke: #A80036; stroke-width: 1.5;" width="10" x="33.75" y="264.2969"/><text fill="#000000" font-family="sans-serif" font-size="14" lengthAdjust="spacingAndGlyphs" textLength="153" x="48.75" y="260.9951">grab_multiple_collated</text><!--entity grab_single_collated--><rect fill="#FEFECE" filter="url(#f1jzbiozb9gm4v)" height="36.2969" style="stroke: #A80036; stroke-width: 1.5;" width="160" x="38" y="416"/><rect fill="#FEFECE" height="5" style="stroke: #A80036; stroke-width: 1.5;" width="10" x="33" y="421"/><rect fill="#FEFECE" height="5" style="stroke: #A80036; stroke-width: 1.5;" width="10" x="33" y="442.2969"/><text fill="#000000" font-family="sans-serif" font-size="14" lengthAdjust="spacingAndGlyphs" textLength="140" x="48" y="438.9951">grab_single_collated</text><!--entity compare_update_insert_table--><rect fill="#FEFECE" filter="url(#f1jzbiozb9gm4v)" height="36.2969" style="stroke: #A80036; stroke-width: 1.5;" width="224" x="460.5" y="238"/><rect fill="#FEFECE" height="5" style="stroke: #A80036; stroke-width: 1.5;" width="10" x="455.5" y="243"/><rect fill="#FEFECE" height="5" style="stroke: #A80036; stroke-width: 1.5;" width="10" x="455.5" y="264.2969"/><text fill="#000000" font-family="sans-serif" font-size="14" lengthAdjust="spacingAndGlyphs" textLength="204" x="470.5" y="260.9951">compare_update_insert_table</text><!--entity get_current_table_data--><rect fill="#FEFECE" filter="url(#f1jzbiozb9gm4v)" height="36.2969" style="stroke: #A80036; stroke-width: 1.5;" width="178" x="247.5" y="238"/><rect fill="#FEFECE" height="5" style="stroke: #A80036; stroke-width: 1.5;" width="10" x="242.5" y="243"/><rect fill="#FEFECE" height="5" style="stroke: #A80036; stroke-width: 1.5;" width="10" x="242.5" y="264.2969"/><text fill="#000000" font-family="sans-serif" font-size="14" lengthAdjust="spacingAndGlyphs" textLength="158" x="257.5" y="260.9951">get_current_table_data</text><!--entity audits_by_host--><rect fill="#FEFECE" filter="url(#f1jzbiozb9gm4v)" height="36.2969" style="stroke: #A80036; stroke-width: 1.5;" width="123" x="100.75" y="633"/><rect fill="#FEFECE" height="5" style="stroke: #A80036; stroke-width: 1.5;" width="10" x="95.75" y="638"/><rect fill="#FEFECE" height="5" style="stroke: #A80036; stroke-width: 1.5;" width="10" x="95.75" y="659.2969"/><text fill="#000000" font-family="sans-serif" font-size="14" lengthAdjust="spacingAndGlyphs" textLength="103" x="110.75" y="655.9951">audits_by_host</text><!--entity audits_by_pop--><rect fill="#FEFECE" filter="url(#f1jzbiozb9gm4v)" height="36.2969" style="stroke: #A80036; stroke-width: 1.5;" width="119" x="594.75" y="633"/><rect fill="#FEFECE" height="5" style="stroke: #A80036; stroke-width: 1.5;" width="10" x="589.75" y="638"/><rect fill="#FEFECE" height="5" style="stroke: #A80036; stroke-width: 1.5;" width="10" x="589.75" y="659.2969"/><text fill="#000000" font-family="sans-serif" font-size="14" lengthAdjust="spacingAndGlyphs" textLength="99" x="604.75" y="655.9951">audits_by_pop</text><!--entity audits_by_srvtype--><rect fill="#FEFECE" filter="url(#f1jzbiozb9gm4v)" height="36.2969" style="stroke: #A80036; stroke-width: 1.5;" width="142" x="417" y="633"/><rect fill="#FEFECE" height="5" style="stroke: #A80036; stroke-width: 1.5;" width="10" x="412" y="638"/><rect fill="#FEFECE" height="5" style="stroke: #A80036; stroke-width: 1.5;" width="10" x="412" y="659.2969"/><text fill="#000000" font-family="sans-serif" font-size="14" lengthAdjust="spacingAndGlyphs" textLength="122" x="427" y="655.9951">audits_by_srvtype</text><!--entity audits_by_acoll--><rect fill="#FEFECE" filter="url(#f1jzbiozb9gm4v)" height="36.2969" style="stroke: #A80036; stroke-width: 1.5;" width="123" x="258.75" y="633"/><rect fill="#FEFECE" height="5" style="stroke: #A80036; stroke-width: 1.5;" width="10" x="253.75" y="638"/><rect fill="#FEFECE" height="5" style="stroke: #A80036; stroke-width: 1.5;" width="10" x="253.75" y="659.2969"/><text fill="#000000" font-family="sans-serif" font-size="14" lengthAdjust="spacingAndGlyphs" textLength="103" x="268.75" y="655.9951">audits_by_acoll</text><!--link grab_all_table_data to grab_multiple_collated--><path d="M310.323,99.343 C290.451,115.173 262.311,137.775 238,158 C204.807,185.614 166.833,218.479 144.441,237.993 " fill="none" id="grab_all_table_data-grab_multiple_collated" style="stroke: #A80036; stroke-width: 1.0;"/><polygon fill="#A80036" points="314.434,96.071,304.9011,98.5455,310.5217,99.1845,309.8827,104.8052,314.434,96.071" style="stroke: #A80036; stroke-width: 1.0;"/><text fill="#000000" font-family="sans-serif" font-size="13" lengthAdjust="spacingAndGlyphs" textLength="87" x="239" y="171.0669">Data Request</text><!--link grab_multiple_collated to grab_single_collated--><path d="M124.316,274.196 C123.043,306.217 120.309,374.953 118.892,410.572 " fill="none" id="grab_multiple_collated-grab_single_collated" style="stroke: #A80036; stroke-width: 1.0;"/><polygon fill="#A80036" points="118.676,415.993,123.0303,407.159,118.8746,410.9969,115.0366,406.8412,118.676,415.993" style="stroke: #A80036; stroke-width: 1.0;"/><text fill="#000000" font-family="sans-serif" font-size="13" lengthAdjust="spacingAndGlyphs" textLength="32" x="123" y="349.0669">Uses</text><!--link grab_all_table_data to get_current_table_data--><path d="M336,101.2 C336,136.823 336,205.987 336,237.993 " fill="none" id="grab_all_table_data-get_current_table_data" style="stroke: #A80036; stroke-width: 1.0;"/><polygon fill="#A80036" points="336,96.196,332,105.196,336,101.196,340,105.196,336,96.196" style="stroke: #A80036; stroke-width: 1.0;"/><text fill="#000000" font-family="sans-serif" font-size="13" lengthAdjust="spacingAndGlyphs" textLength="87" x="337" y="171.0669">Data Request</text><!--link grab_all_table_data to compare_update_insert_table--><path d="M359.058,96.196 C402.967,128.941 498.362,200.083 545.099,234.939 " fill="none" id="grab_all_table_data-compare_update_insert_table" style="stroke: #A80036; stroke-width: 1.0;"/><polygon fill="#A80036" points="549.195,237.993,544.3724,229.4056,545.1871,235.0035,539.5893,235.8182,549.195,237.993" style="stroke: #A80036; stroke-width: 1.0;"/><text fill="#000000" font-family="sans-serif" font-size="13" lengthAdjust="spacingAndGlyphs" textLength="32" x="466" y="171.0669">Uses</text><!--link grab_single_collated to audits_by_host--><path d="M121.526,452.231 C129.463,491.011 148.719,585.103 157.5,628.0134 " fill="none" id="grab_single_collated-audits_by_host" style="stroke: #A80036; stroke-width: 1.0;"/><polygon fill="#A80036" points="158.518,632.9855,160.6322,623.3662,157.5155,628.087,152.7946,624.9703,158.518,632.9855" style="stroke: #A80036; stroke-width: 1.0;"/><text fill="#000000" font-family="sans-serif" font-size="13" lengthAdjust="spacingAndGlyphs" textLength="40" x="140" y="529.0669">Select</text><!--link get_current_table_data to audits_by_pop--><path d="M424.581,272.57 C518.674,290.361 654,320.103 654,344 C654,344 654,344 654,526 C654,561.574 654,602.8883 654,627.7101 " fill="none" id="get_current_table_data-audits_by_pop" style="stroke: #A80036; stroke-width: 1.0;"/><polygon fill="#A80036" points="654,632.7485,658,623.7485,654,627.7485,650,623.7485,654,632.7485" style="stroke: #A80036; stroke-width: 1.0;"/><text fill="#000000" font-family="sans-serif" font-size="13" lengthAdjust="spacingAndGlyphs" textLength="40" x="655" y="438.0669">Select</text><!--link get_current_table_data to audits_by_srvtype--><path d="M351.235,274.311 C364.29,290.969 381,317.472 381,344 C381,344 381,344 381,526 C381,551.24 432.457,601.1057 464.003,629.3046 " fill="none" id="get_current_table_data-audits_by_srvtype" style="stroke: #A80036; stroke-width: 1.0;"/><polygon fill="#A80036" points="468.125,632.9676,464.0546,623.9992,464.3875,629.6463,458.7405,629.9792,468.125,632.9676" style="stroke: #A80036; stroke-width: 1.0;"/><text fill="#000000" font-family="sans-serif" font-size="13" lengthAdjust="spacingAndGlyphs" textLength="40" x="382" y="438.0669">Select</text><!--link get_current_table_data to audits_by_acoll--><path d="M311.065,274.292 C291.658,289.985 268,315.053 268,344 C268,344 268,344 268,526 C268,564.458 289.535,604.7716 304.889,628.625 " fill="none" id="get_current_table_data-audits_by_acoll" style="stroke: #A80036; stroke-width: 1.0;"/><polygon fill="#A80036" points="307.677,632.8832,306.093,623.1625,304.9379,628.7002,299.4003,627.5451,307.677,632.8832" style="stroke: #A80036; stroke-width: 1.0;"/><text fill="#000000" font-family="sans-serif" font-size="13" lengthAdjust="spacingAndGlyphs" textLength="40" x="269" y="438.0669">Select</text><!--link compare_update_insert_table to audits_by_pop--><path d="M683.837,263.07 C787.894,271.876 927,293.156 927,344 C927,344 927,344 927,526 C927,617.0507 799.559,641.5677 718.822,647.964 " fill="none" id="compare_update_insert_table-audits_by_pop" style="stroke: #A80036; stroke-width: 1.0;"/><polygon fill="#A80036" points="713.574,648.3596,722.8491,651.672,718.5599,647.9839,722.248,643.6946,713.574,648.3596" style="stroke: #A80036; stroke-width: 1.0;"/><text fill="#000000" font-family="sans-serif" font-size="13" lengthAdjust="spacingAndGlyphs" textLength="87" x="928" y="438.0669">Insert/Update</text><!--link compare_update_insert_table to audits_by_srvtype--><path d="M683.737,268.161 C727.307,279.293 767,301.183 767,344 C767,344 767,344 767,526 C767,613.0975 654.371,534.003 577,574 C549.816,588.053 523.813,611.8755 507.011,629.1086 " fill="none" id="compare_update_insert_table-audits_by_srvtype" style="stroke: #A80036; stroke-width: 1.0;"/><polygon fill="#A80036" points="503.36,632.8985,512.4846,629.1914,506.8287,629.2974,506.7228,623.6415,503.36,632.8985" style="stroke: #A80036; stroke-width: 1.0;"/><text fill="#000000" font-family="sans-serif" font-size="13" lengthAdjust="spacingAndGlyphs" textLength="87" x="768" y="438.0669">Insert/Update</text><!--link compare_update_insert_table to audits_by_acoll--><path d="M542.512,274.05 C520.423,289.261 494,313.774 494,344 C494,344 494,344 494,526 C494,572.909 438.289,546.899 400,574 C377.224,590.121 354.468,612.5002 339.082,628.7977 " fill="none" id="compare_update_insert_table-audits_by_acoll" style="stroke: #A80036; stroke-width: 1.0;"/><polygon fill="#A80036" points="335.333,632.8026,344.403,628.9639,338.7492,629.1517,338.5615,623.4979,335.333,632.8026" style="stroke: #A80036; stroke-width: 1.0;"/><text fill="#000000" font-family="sans-serif" font-size="13" lengthAdjust="spacingAndGlyphs" textLength="87" x="495" y="438.0669">Insert/Update</text><!--
@startuml


package "collate.py" {
	[grab_all_table_data]
	[grab_multiple_collated]
	[grab_single_collated]
	[compare_update_insert_table]
	[get_current_table_data]
}

database "jellyfish2" {
	[audits_by_host]
	[audits_by_pop]
	[audits_by_srvtype]
	[audits_by_acoll]
}


[grab_all_table_data] <- - - [grab_multiple_collated] : Data Request
[grab_multiple_collated] - - -> [grab_single_collated] : Uses

[grab_all_table_data] <- - - [get_current_table_data] : Data Request

[grab_all_table_data] - - -> [compare_update_insert_table] : Uses


[grab_single_collated] - - -> [audits_by_host] : Select

[get_current_table_data] - - -> [audits_by_pop] : Select
[get_current_table_data] - - -> [audits_by_srvtype] : Select
[get_current_table_data] - - -> [audits_by_acoll] : Select

[compare_update_insert_table] - - -> [audits_by_pop] : Insert/Update
[compare_update_insert_table] - - -> [audits_by_srvtype] : Insert/Update
[compare_update_insert_table] - - -> [audits_by_acoll] : Insert/Update



@enduml

PlantUML version 1.2018.02(Fri Mar 09 17:20:44 UTC 2018)
(GPL source distribution)
Java Runtime: Java(TM) SE Runtime Environment
JVM: Java HotSpot(TM) 64-Bit Server VM
Java Version: 1.8.0_151-b12
Operating System: Linux
OS Version: 4.4.0-101-generic
Default Encoding: UTF-8
Language: en
Country: US
--></g></svg>