<?xml version="1.0" encoding="UTF-8" standalone="no"?><svg xmlns="http://www.w3.org/2000/svg" xmlns:xlink="http://www.w3.org/1999/xlink" contentScriptType="application/ecmascript" contentStyleType="text/css" height="782px" preserveAspectRatio="none" style="width:569px;height:782px;" version="1.1" viewBox="0 0 569 782" width="569px" zoomAndPan="magnify"><defs><filter height="300%" id="f19xtx48f9iwr" width="300%" x="-1" y="-1"><feGaussianBlur result="blurOut" stdDeviation="2.0"/><feColorMatrix in="blurOut" result="blurOut2" type="matrix" values="0 0 0 0 0 0 0 0 0 0 0 0 0 0 0 0 0 0 .4 0"/><feOffset dx="4.0" dy="4.0" in="blurOut2" result="blurOut3"/><feBlend in="SourceGraphic" in2="blurOut3" mode="normal"/></filter></defs><g><!--cluster AWS--><path d="M25,455 C25,452 27,450 30,450 C33,450 35,452 35,455 C35,452 37,450 40,450 C43,450 45,452 45,455 C45,452 47,450 50,450 C53,450 55,452 55,455 C55,452 57,450 60,450 C63,450 65,452 65,455 C65,452 67,450 70,450 C73,450 75,452 75,455 C75,452 77,450 80,450 C83,450 85,452 85,455 C85,452 87,450 90,450 C93,450 95,452 95,455 C95,452 97,450 100,450 C103,450 105,452 105,455 C105,452 107,450 110,450 C113,450 115,452 115,455 C115,452 117,450 120,450 C123,450 125,452 125,455 C125,452 127,450 130,450 C133,450 135,452 135,455 C135,452 137,450 140,450 C143,450 145,452 145,455 C145,452 147,450 150,450 C153,450 155,452 155,455 C155,452 157,450 160,450 C163,450 165,452 165,455 C165,452 167,450 170,450 C173,450 175,452 175,455 C175,452 177,450 180,450 C183,450 185,452 185,455 C185,452 187,450 190,450 C193,450 195,452 195,455 C195,452 197,450 200,450 C203,450 205,452 205,455 C205,452 207,450 210,450 C213,450 215,452 215,455 C215,452 217,450 220,450 C223,450 225,452 225,455 C225,452 227,450 230,450 C233,450 235,452 235,455 C235,452 237,450 240,450 C243,450 245,452 245,455 C245,452 247,450 250,450 C253,450 255,452 255,455 C255,452 257,450 260,450 C263,450 265,452 265,455 C265,452 267,450 270,450 C273,450 275,452 275,455 C275,452 277,450 280,450 C283,450 285,452 285,455 C285,452 287,450 290,450 C293,450 295,452 295,455 C295,452 297,450 300,450 C303,450 305,452 305,455 C305,452 307,450 310,450 C313,450 315,452 315,455 C315,452 317,450 320,450 C323,450 325,452 325,455 C325,452 327,450 330,450 C333,450 335,452 335,455 C338,455 340,457 340,460 C340,463 338,465 335,465 C338,465 340,467 340,470 C340,473 338,475 335,475 C338,475 340,477 340,480 C340,483 338,485 335,485 C338,485 340,487 340,490 C340,493 338,495 335,495 C338,495 340,497 340,500 C340,503 338,505 335,505 C338,505 340,507 340,510 C340,513 338,515 335,515 C338,515 340,517 340,520 C340,523 338,525 335,525 C338,525 340,527 340,530 C340,533 338,535 335,535 C338,535 340,537 340,540 C340,543 338,545 335,545 C338,545 340,547 340,550 C340,553 338,555 335,555 C338,555 340,557 340,560 C340,563 338,565 335,565 C338,565 340,567 340,570 C340,573 338,575 335,575 C338,575 340,577 340,580 C340,583 338,585 335,585 C338,585 340,587 340,590 C340,593 338,595 335,595 C338,595 340,597 340,600 C340,603 338,605 335,605 C338,605 340,607 340,610 C340,613 338,615 335,615 C338,615 340,617 340,620 C340,623 338,625 335,625 C338,625 340,627 340,630 C340,633 338,635 335,635 C338,635 340,637 340,640 C340,643 338,645 335,645 C338,645 340,647 340,650 C340,653 338,655 335,655 C338,655 340,657 340,660 C340,663 338,665 335,665 C338,665 340,667 340,670 C340,673 338,675 335,675 C338,675 340,677 340,680 C340,683 338,685 335,685 C338,685 340,687 340,690 C340,693 338,695 335,695 C338,695 340,697 340,700 C340,703 338,705 335,705 C338,705 340,707 340,710 C340,713 338,715 335,715 C338,715 340,717 340,720 C340,723 338,725 335,725 C338,725 340,727 340,730 C340,733 338,735 335,735 C338,735 340,737 340,740 C340,743 338,745 335,745 C338,745 340,747 340,750 C340,753 338,755 335,755 C338,755 340,757 340,760 C340,763 338,765 335,765 C335,768 332,770 330,770 C327,770 325,768 325,765 C325,768 322,770 320,770 C317,770 315,768 315,765 C315,768 312,770 310,770 C307,770 305,768 305,765 C305,768 302,770 300,770 C297,770 295,768 295,765 C295,768 292,770 290,770 C287,770 285,768 285,765 C285,768 282,770 280,770 C277,770 275,768 275,765 C275,768 272,770 270,770 C267,770 265,768 265,765 C265,768 262,770 260,770 C257,770 255,768 255,765 C255,768 252,770 250,770 C247,770 245,768 245,765 C245,768 242,770 240,770 C237,770 235,768 235,765 C235,768 232,770 230,770 C227,770 225,768 225,765 C225,768 222,770 220,770 C217,770 215,768 215,765 C215,768 212,770 210,770 C207,770 205,768 205,765 C205,768 202,770 200,770 C197,770 195,768 195,765 C195,768 192,770 190,770 C187,770 185,768 185,765 C185,768 182,770 180,770 C177,770 175,768 175,765 C175,768 172,770 170,770 C167,770 165,768 165,765 C165,768 162,770 160,770 C157,770 155,768 155,765 C155,768 152,770 150,770 C147,770 145,768 145,765 C145,768 142,770 140,770 C137,770 135,768 135,765 C135,768 132,770 130,770 C127,770 125,768 125,765 C125,768 122,770 120,770 C117,770 115,768 115,765 C115,768 112,770 110,770 C107,770 105,768 105,765 C105,768 102,770 100,770 C97,770 95,768 95,765 C95,768 92,770 90,770 C87,770 85,768 85,765 C85,768 82,770 80,770 C77,770 75,768 75,765 C75,768 72,770 70,770 C67,770 65,768 65,765 C65,768 62,770 60,770 C57,770 55,768 55,765 C55,768 52,770 50,770 C47,770 45,768 45,765 C45,768 42,770 40,770 C37,770 35,768 35,765 C35,768 32,770 30,770 C27,770 25,768 25,765 C22,765 20,763 20,760 C20,757 22,755 25,755 C22,755 20,753 20,750 C20,747 22,745 25,745 C22,745 20,743 20,740 C20,737 22,735 25,735 C22,735 20,733 20,730 C20,727 22,725 25,725 C22,725 20,723 20,720 C20,717 22,715 25,715 C22,715 20,713 20,710 C20,707 22,705 25,705 C22,705 20,703 20,700 C20,697 22,695 25,695 C22,695 20,693 20,690 C20,687 22,685 25,685 C22,685 20,683 20,680 C20,677 22,675 25,675 C22,675 20,673 20,670 C20,667 22,665 25,665 C22,665 20,663 20,660 C20,657 22,655 25,655 C22,655 20,653 20,650 C20,647 22,645 25,645 C22,645 20,643 20,640 C20,637 22,635 25,635 C22,635 20,633 20,630 C20,627 22,625 25,625 C22,625 20,623 20,620 C20,617 22,615 25,615 C22,615 20,613 20,610 C20,607 22,605 25,605 C22,605 20,603 20,600 C20,597 22,595 25,595 C22,595 20,593 20,590 C20,587 22,585 25,585 C22,585 20,583 20,580 C20,577 22,575 25,575 C22,575 20,573 20,570 C20,567 22,565 25,565 C22,565 20,563 20,560 C20,557 22,555 25,555 C22,555 20,553 20,550 C20,547 22,545 25,545 C22,545 20,543 20,540 C20,537 22,535 25,535 C22,535 20,533 20,530 C20,527 22,525 25,525 C22,525 20,523 20,520 C20,517 22,515 25,515 C22,515 20,513 20,510 C20,507 22,505 25,505 C22,505 20,503 20,500 C20,497 22,495 25,495 C22,495 20,493 20,490 C20,487 22,485 25,485 C22,485 20,483 20,480 C20,477 22,475 25,475 C22,475 20,473 20,470 C20,467 22,465 25,465 C22,465 20,463 20,460 C20,457 22,455 25,455 " fill="#FFFFFF" filter="url(#f19xtx48f9iwr)" style="stroke: #000000; stroke-width: 1.5;"/><text fill="#000000" font-family="sans-serif" font-size="14" font-weight="bold" lengthAdjust="spacingAndGlyphs" textLength="36" x="162.5" y="473.9951">AWS</text><!--cluster rds:jellyfish2--><path d="M52,658 C52,648 162.5,648 162.5,648 C162.5,648 273,648 273,658 L273,741 C273,751 162.5,751 162.5,751 C162.5,751 52,751 52,741 L52,658 " fill="#FFFFFF" filter="url(#f19xtx48f9iwr)" style="stroke: #000000; stroke-width: 1.5;"/><path d="M52,658 C52,668 162.5,668 162.5,668 C162.5,668 273,668 273,658 " fill="none" style="stroke: #000000; stroke-width: 1.5;"/><text fill="#000000" font-family="sans-serif" font-size="14" font-weight="bold" lengthAdjust="spacingAndGlyphs" textLength="102" x="111.5" y="681.9951">rds:jellyfish2</text><!--cluster Command_and_Control--><path d="M81,31 C81,28 83,26 86,26 C89,26 91,28 91,31 C91,28 93,26 96,26 C99,26 101,28 101,31 C101,28 103,26 106,26 C109,26 111,28 111,31 C111,28 113,26 116,26 C119,26 121,28 121,31 C121,28 123,26 126,26 C129,26 131,28 131,31 C131,28 133,26 136,26 C139,26 141,28 141,31 C141,28 143,26 146,26 C149,26 151,28 151,31 C151,28 153,26 156,26 C159,26 161,28 161,31 C161,28 163,26 166,26 C169,26 171,28 171,31 C171,28 173,26 176,26 C179,26 181,28 181,31 C181,28 183,26 186,26 C189,26 191,28 191,31 C191,28 193,26 196,26 C199,26 201,28 201,31 C201,28 203,26 206,26 C209,26 211,28 211,31 C211,28 213,26 216,26 C219,26 221,28 221,31 C221,28 223,26 226,26 C229,26 231,28 231,31 C231,28 233,26 236,26 C239,26 241,28 241,31 C241,28 243,26 246,26 C249,26 251,28 251,31 C251,28 253,26 256,26 C259,26 261,28 261,31 C261,28 263,26 266,26 C269,26 271,28 271,31 C274,31 276,33 276,36 C276,39 274,41 271,41 C274,41 276,43 276,46 C276,49 274,51 271,51 C274,51 276,53 276,56 C276,59 274,61 271,61 C274,61 276,63 276,66 C276,69 274,71 271,71 C274,71 276,73 276,76 C276,79 274,81 271,81 C274,81 276,83 276,86 C276,89 274,91 271,91 C274,91 276,93 276,96 C276,99 274,101 271,101 C274,101 276,103 276,106 C276,109 274,111 271,111 C271,114 268,116 266,116 C263,116 261,114 261,111 C261,114 258,116 256,116 C253,116 251,114 251,111 C251,114 248,116 246,116 C243,116 241,114 241,111 C241,114 238,116 236,116 C233,116 231,114 231,111 C231,114 228,116 226,116 C223,116 221,114 221,111 C221,114 218,116 216,116 C213,116 211,114 211,111 C211,114 208,116 206,116 C203,116 201,114 201,111 C201,114 198,116 196,116 C193,116 191,114 191,111 C191,114 188,116 186,116 C183,116 181,114 181,111 C181,114 178,116 176,116 C173,116 171,114 171,111 C171,114 168,116 166,116 C163,116 161,114 161,111 C161,114 158,116 156,116 C153,116 151,114 151,111 C151,114 148,116 146,116 C143,116 141,114 141,111 C141,114 138,116 136,116 C133,116 131,114 131,111 C131,114 128,116 126,116 C123,116 121,114 121,111 C121,114 118,116 116,116 C113,116 111,114 111,111 C111,114 108,116 106,116 C103,116 101,114 101,111 C101,114 98,116 96,116 C93,116 91,114 91,111 C91,114 88,116 86,116 C83,116 81,114 81,111 C78,111 76,109 76,106 C76,103 78,101 81,101 C78,101 76,99 76,96 C76,93 78,91 81,91 C78,91 76,89 76,86 C76,83 78,81 81,81 C78,81 76,79 76,76 C76,73 78,71 81,71 C78,71 76,69 76,66 C76,63 78,61 81,61 C78,61 76,59 76,56 C76,53 78,51 81,51 C78,51 76,49 76,46 C76,43 78,41 81,41 C78,41 76,39 76,36 C76,33 78,31 81,31 " fill="#FFFFFF" filter="url(#f19xtx48f9iwr)" style="stroke: #000000; stroke-width: 1.5;"/><text fill="#000000" font-family="sans-serif" font-size="14" font-weight="bold" lengthAdjust="spacingAndGlyphs" textLength="179" x="86.5" y="49.9951">Command_and_Control</text><!--cluster Network--><path d="M172,243 C172,240 174,238 177,238 C180,238 182,240 182,243 C182,240 184,238 187,238 C190,238 192,240 192,243 C192,240 194,238 197,238 C200,238 202,240 202,243 C202,240 204,238 207,238 C210,238 212,240 212,243 C212,240 214,238 217,238 C220,238 222,240 222,243 C222,240 224,238 227,238 C230,238 232,240 232,243 C232,240 234,238 237,238 C240,238 242,240 242,243 C242,240 244,238 247,238 C250,238 252,240 252,243 C252,240 254,238 257,238 C260,238 262,240 262,243 C262,240 264,238 267,238 C270,238 272,240 272,243 C272,240 274,238 277,238 C280,238 282,240 282,243 C282,240 284,238 287,238 C290,238 292,240 292,243 C292,240 294,238 297,238 C300,238 302,240 302,243 C302,240 304,238 307,238 C310,238 312,240 312,243 C312,240 314,238 317,238 C320,238 322,240 322,243 C322,240 324,238 327,238 C330,238 332,240 332,243 C332,240 334,238 337,238 C340,238 342,240 342,243 C342,240 344,238 347,238 C350,238 352,240 352,243 C352,240 354,238 357,238 C360,238 362,240 362,243 C362,240 364,238 367,238 C370,238 372,240 372,243 C372,240 374,238 377,238 C380,238 382,240 382,243 C382,240 384,238 387,238 C390,238 392,240 392,243 C392,240 394,238 397,238 C400,238 402,240 402,243 C402,240 404,238 407,238 C410,238 412,240 412,243 C412,240 414,238 417,238 C420,238 422,240 422,243 C422,240 424,238 427,238 C430,238 432,240 432,243 C432,240 434,238 437,238 C440,238 442,240 442,243 C442,240 444,238 447,238 C450,238 452,240 452,243 C452,240 454,238 457,238 C460,238 462,240 462,243 C462,240 464,238 467,238 C470,238 472,240 472,243 C472,240 474,238 477,238 C480,238 482,240 482,243 C482,240 484,238 487,238 C490,238 492,240 492,243 C492,240 494,238 497,238 C500,238 502,240 502,243 C502,240 504,238 507,238 C510,238 512,240 512,243 C512,240 514,238 517,238 C520,238 522,240 522,243 C522,240 524,238 527,238 C530,238 532,240 532,243 C532,240 534,238 537,238 C540,238 542,240 542,243 C542,240 544,238 547,238 C550,238 552,240 552,243 C555,243 557,245 557,248 C557,251 555,253 552,253 C555,253 557,255 557,258 C557,261 555,263 552,263 C555,263 557,265 557,268 C557,271 555,273 552,273 C555,273 557,275 557,278 C557,281 555,283 552,283 C555,283 557,285 557,288 C557,291 555,293 552,293 C555,293 557,295 557,298 C557,301 555,303 552,303 C555,303 557,305 557,308 C557,311 555,313 552,313 C555,313 557,315 557,318 C557,321 555,323 552,323 C552,326 549,328 547,328 C544,328 542,326 542,323 C542,326 539,328 537,328 C534,328 532,326 532,323 C532,326 529,328 527,328 C524,328 522,326 522,323 C522,326 519,328 517,328 C514,328 512,326 512,323 C512,326 509,328 507,328 C504,328 502,326 502,323 C502,326 499,328 497,328 C494,328 492,326 492,323 C492,326 489,328 487,328 C484,328 482,326 482,323 C482,326 479,328 477,328 C474,328 472,326 472,323 C472,326 469,328 467,328 C464,328 462,326 462,323 C462,326 459,328 457,328 C454,328 452,326 452,323 C452,326 449,328 447,328 C444,328 442,326 442,323 C442,326 439,328 437,328 C434,328 432,326 432,323 C432,326 429,328 427,328 C424,328 422,326 422,323 C422,326 419,328 417,328 C414,328 412,326 412,323 C412,326 409,328 407,328 C404,328 402,326 402,323 C402,326 399,328 397,328 C394,328 392,326 392,323 C392,326 389,328 387,328 C384,328 382,326 382,323 C382,326 379,328 377,328 C374,328 372,326 372,323 C372,326 369,328 367,328 C364,328 362,326 362,323 C362,326 359,328 357,328 C354,328 352,326 352,323 C352,326 349,328 347,328 C344,328 342,326 342,323 C342,326 339,328 337,328 C334,328 332,326 332,323 C332,326 329,328 327,328 C324,328 322,326 322,323 C322,326 319,328 317,328 C314,328 312,326 312,323 C312,326 309,328 307,328 C304,328 302,326 302,323 C302,326 299,328 297,328 C294,328 292,326 292,323 C292,326 289,328 287,328 C284,328 282,326 282,323 C282,326 279,328 277,328 C274,328 272,326 272,323 C272,326 269,328 267,328 C264,328 262,326 262,323 C262,326 259,328 257,328 C254,328 252,326 252,323 C252,326 249,328 247,328 C244,328 242,326 242,323 C242,326 239,328 237,328 C234,328 232,326 232,323 C232,326 229,328 227,328 C224,328 222,326 222,323 C222,326 219,328 217,328 C214,328 212,326 212,323 C212,326 209,328 207,328 C204,328 202,326 202,323 C202,326 199,328 197,328 C194,328 192,326 192,323 C192,326 189,328 187,328 C184,328 182,326 182,323 C182,326 179,328 177,328 C174,328 172,326 172,323 C169,323 167,321 167,318 C167,315 169,313 172,313 C169,313 167,311 167,308 C167,305 169,303 172,303 C169,303 167,301 167,298 C167,295 169,293 172,293 C169,293 167,291 167,288 C167,285 169,283 172,283 C169,283 167,281 167,278 C167,275 169,273 172,273 C169,273 167,271 167,268 C167,265 169,263 172,263 C169,263 167,261 167,258 C167,255 169,253 172,253 C169,253 167,251 167,248 C167,245 169,243 172,243 " fill="#FFFFFF" filter="url(#f19xtx48f9iwr)" style="stroke: #000000; stroke-width: 1.5;"/><text fill="#000000" font-family="sans-serif" font-size="14" font-weight="bold" lengthAdjust="spacingAndGlyphs" textLength="67" x="328" y="261.9951">Network</text><!--entity jellyfish_api--><rect fill="#FEFECE" filter="url(#f19xtx48f9iwr)" height="36.2969" style="stroke: #000000; stroke-width: 1.5;" width="96" x="126" y="484"/><text fill="#000000" font-family="sans-serif" font-size="14" lengthAdjust="spacingAndGlyphs" textLength="76" x="136" y="506.9951">jellyfish_api</text><!--entity collections--><rect fill="#FEFECE" filter="url(#f19xtx48f9iwr)" height="36.2969" style="stroke: #000000; stroke-width: 1.5;" width="94" x="68" y="699"/><text fill="#000000" font-family="sans-serif" font-size="14" lengthAdjust="spacingAndGlyphs" textLength="74" x="78" y="721.9951">collections</text><!--entity hosts--><rect fill="#FEFECE" filter="url(#f19xtx48f9iwr)" height="36.2969" style="stroke: #000000; stroke-width: 1.5;" width="59" x="197.75" y="699"/><text fill="#000000" font-family="sans-serif" font-size="14" lengthAdjust="spacingAndGlyphs" textLength="39" x="207.75" y="721.9951">hosts</text><!--entity scheduler_box--><polygon fill="#FEFECE" filter="url(#f19xtx48f9iwr)" points="105.75,70,115.75,60,246.75,60,246.75,96.2969,236.75,106.2969,105.75,106.2969,105.75,70" style="stroke: #000000; stroke-width: 1.5;"/><line style="stroke: #000000; stroke-width: 1.5;" x1="236.75" x2="245.75" y1="70" y2="61"/><line style="stroke: #000000; stroke-width: 1.5;" x1="105.75" x2="236.75" y1="70" y2="70"/><line style="stroke: #000000; stroke-width: 1.5;" x1="236.75" x2="236.75" y1="70" y2="106.2969"/><text fill="#000000" font-family="sans-serif" font-size="14" lengthAdjust="spacingAndGlyphs" textLength="101" x="120.75" y="92.9951">scheduler_box</text><!--entity stingcell_target--><polygon fill="#FEFECE" filter="url(#f19xtx48f9iwr)" points="392.75,282,402.75,272,537.75,272,537.75,308.2969,527.75,318.2969,392.75,318.2969,392.75,282" style="stroke: #000000; stroke-width: 1.5;"/><line style="stroke: #000000; stroke-width: 1.5;" x1="527.75" x2="536.75" y1="282" y2="273"/><line style="stroke: #000000; stroke-width: 1.5;" x1="392.75" x2="527.75" y1="282" y2="282"/><line style="stroke: #000000; stroke-width: 1.5;" x1="527.75" x2="527.75" y1="282" y2="318.2969"/><text fill="#000000" font-family="sans-serif" font-size="14" lengthAdjust="spacingAndGlyphs" textLength="105" x="407.75" y="304.9951">stingcell_target</text><!--entity nonstingcell_target--><polygon fill="#FEFECE" filter="url(#f19xtx48f9iwr)" points="185,282,195,272,357,272,357,308.2969,347,318.2969,185,318.2969,185,282" style="stroke: #000000; stroke-width: 1.5;"/><line style="stroke: #000000; stroke-width: 1.5;" x1="347" x2="356" y1="282" y2="273"/><line style="stroke: #000000; stroke-width: 1.5;" x1="185" x2="347" y1="282" y2="282"/><line style="stroke: #000000; stroke-width: 1.5;" x1="347" x2="347" y1="282" y2="318.2969"/><text fill="#000000" font-family="sans-serif" font-size="14" lengthAdjust="spacingAndGlyphs" textLength="132" x="200" y="304.9951">nonstingcell_target</text><!--link scheduler_box to jellyfish_api--><path d="M151.596,106.225 C134.984,123.864 116,150.121 116,178 C116,178 116,178 116,392 C116,425.762 137.954,459.238 154.848,480.002 " fill="none" id="scheduler_box-jellyfish_api" style="stroke: #A80036; stroke-width: 1.0;"/><polygon fill="#A80036" points="158.151,483.981,155.4792,474.5015,154.957,480.1342,149.3243,479.6119,158.151,483.981" style="stroke: #A80036; stroke-width: 1.0;"/><text fill="#000000" font-family="sans-serif" font-size="13" lengthAdjust="spacingAndGlyphs" textLength="31" x="117" y="299.0669">Push</text><!--link scheduler_box to nonstingcell_target--><path d="M188.1,110.747 C206.323,151.029 240.615,226.833 258.861,267.166 " fill="none" id="scheduler_box-nonstingcell_target" style="stroke: #A80036; stroke-width: 1.0;"/><polygon fill="#A80036" points="261.004,271.904,260.938,262.0554,258.9427,267.3487,253.6494,265.3534,261.004,271.904" style="stroke: #A80036; stroke-width: 1.0;"/><polygon fill="#A80036" points="185.987,106.077,186.0542,115.9256,188.0488,110.6321,193.3423,112.6267,185.987,106.077" style="stroke: #A80036; stroke-width: 1.0;"/><text fill="#000000" font-family="sans-serif" font-size="13" lengthAdjust="spacingAndGlyphs" textLength="22" x="223" y="183.0669">Pull</text><!--link stingcell_target to jellyfish_api--><path d="M433.581,318.133 C376.574,358.293 256.954,442.562 202.313,481.055 " fill="none" id="stingcell_target-jellyfish_api" style="stroke: #A80036; stroke-width: 1.0;"/><polygon fill="#A80036" points="198.177,483.968,207.838,482.0537,202.2642,481.088,203.2299,475.5141,198.177,483.968" style="stroke: #A80036; stroke-width: 1.0;"/><text fill="#000000" font-family="sans-serif" font-size="13" lengthAdjust="spacingAndGlyphs" textLength="31" x="342" y="395.0669">Push</text><!--link jellyfish_api to collections--><path d="M148.393,520.022 C129.678,534.123 105.7628,556.016 95,582 C79.5775,619.233 93.7577,666.651 104.8239,693.9426 " fill="none" id="jellyfish_api-collections" style="stroke: #A80036; stroke-width: 1.0;"/><polygon fill="#A80036" points="106.846,698.7973,107.0777,688.9512,104.9233,694.1817,99.6928,692.0274,106.846,698.7973" style="stroke: #A80036; stroke-width: 1.0;"/><text fill="#000000" font-family="sans-serif" font-size="13" lengthAdjust="spacingAndGlyphs" textLength="87" x="96" y="595.0669">Insert/Update</text><!--link jellyfish_api to hosts--><path d="M178.248,520.071 C187.784,558.395 210.888,651.247 221.501,693.9021 " fill="none" id="jellyfish_api-hosts" style="stroke: #A80036; stroke-width: 1.0;"/><polygon fill="#A80036" points="222.732,698.8481,224.44,689.1485,221.5244,693.9961,216.6768,691.0806,222.732,698.8481" style="stroke: #A80036; stroke-width: 1.0;"/><text fill="#000000" font-family="sans-serif" font-size="13" lengthAdjust="spacingAndGlyphs" textLength="87" x="198" y="595.0669">Insert/Update</text><!--
@startuml

cloud AWS {
	database "rds:jellyfish2" {
		rectangle collections
		rectangle hosts
	}
	rectangle jellyfish_api
}

cloud Command_and_Control {
	node scheduler_box
}

cloud Network {
	node stingcell_target
	node nonstingcell_target
}

scheduler_box - - -> jellyfish_api : Push
scheduler_box <- - -> nonstingcell_target : Pull

stingcell_target - - -> jellyfish_api : Push

jellyfish_api - - -> collections : Insert/Update
jellyfish_api - - -> hosts : Insert/Update


@enduml

PlantUML version 1.2018.02(Fri Mar 09 17:20:44 UTC 2018)
(GPL source distribution)
Java Runtime: Java(TM) SE Runtime Environment
JVM: Java HotSpot(TM) 64-Bit Server VM
Java Version: 1.8.0_151-b12
Operating System: Linux
OS Version: 4.4.0-101-generic
Default Encoding: UTF-8
Language: en
Country: US
--></g></svg>