<?xml version="1.0" encoding="UTF-8" standalone="no"?><svg xmlns="http://www.w3.org/2000/svg" xmlns:xlink="http://www.w3.org/1999/xlink" contentScriptType="application/ecmascript" contentStyleType="text/css" height="1009px" preserveAspectRatio="none" style="width:619px;height:1009px;" version="1.1" viewBox="0 0 619 1009" width="619px" zoomAndPan="magnify"><defs><filter height="300%" id="fmfb840lu0t86" width="300%" x="-1" y="-1"><feGaussianBlur result="blurOut" stdDeviation="2.0"/><feColorMatrix in="blurOut" result="blurOut2" type="matrix" values="0 0 0 0 0 0 0 0 0 0 0 0 0 0 0 0 0 0 .4 0"/><feOffset dx="4.0" dy="4.0" in="blurOut2" result="blurOut3"/><feBlend in="SourceGraphic" in2="blurOut3" mode="normal"/></filter></defs><g><!--cluster thread_actions--><polygon fill="#FFFFFF" filter="url(#fmfb840lu0t86)" points="170.25,360,292.25,360,299.25,382.2969,397.25,382.2969,397.25,780,170.25,780,170.25,360" style="stroke: #000000; stroke-width: 1.5;"/><line style="stroke: #000000; stroke-width: 1.5;" x1="170.25" x2="299.25" y1="382.2969" y2="382.2969"/><text fill="#000000" font-family="sans-serif" font-size="14" font-weight="bold" lengthAdjust="spacingAndGlyphs" textLength="116" x="174.25" y="374.9951">thread_actions</text><!--cluster jellyfish2--><path d="M154.25,904 C154.25,894 264.75,894 264.75,894 C264.75,894 375.25,894 375.25,904 L375.25,987 C375.25,997 264.75,997 264.75,997 C264.75,997 154.25,997 154.25,987 L154.25,904 " fill="#FFFFFF" filter="url(#fmfb840lu0t86)" style="stroke: #000000; stroke-width: 1.5;"/><path d="M154.25,904 C154.25,914 264.75,914 264.75,914 C264.75,914 375.25,914 375.25,904 " fill="none" style="stroke: #000000; stroke-width: 1.5;"/><text fill="#000000" font-family="sans-serif" font-size="14" font-weight="bold" lengthAdjust="spacingAndGlyphs" textLength="70" x="229.75" y="927.9951">jellyfish2</text><!--entity grab_host--><ellipse cx="230.25" cy="427" fill="#FEFECE" filter="url(#fmfb840lu0t86)" rx="8" ry="8" style="stroke: #A80036; stroke-width: 2.0;"/><text fill="#000000" font-family="sans-serif" font-size="14" lengthAdjust="spacingAndGlyphs" textLength="69" x="195.75" y="456.9951">grab_host</text><!--entity collection--><rect fill="#FEFECE" filter="url(#fmfb840lu0t86)" height="36.2969" style="stroke: #A80036; stroke-width: 1.5;" width="86" x="186.25" y="728"/><rect fill="#FEFECE" height="5" style="stroke: #A80036; stroke-width: 1.5;" width="10" x="181.25" y="733"/><rect fill="#FEFECE" height="5" style="stroke: #A80036; stroke-width: 1.5;" width="10" x="181.25" y="754.2969"/><text fill="#000000" font-family="sans-serif" font-size="14" lengthAdjust="spacingAndGlyphs" textLength="66" x="196.25" y="750.9951">collection</text><!--entity storage--><rect fill="#FEFECE" filter="url(#fmfb840lu0t86)" height="36.2969" style="stroke: #A80036; stroke-width: 1.5;" width="73" x="308" y="728"/><rect fill="#FEFECE" height="5" style="stroke: #A80036; stroke-width: 1.5;" width="10" x="303" y="733"/><rect fill="#FEFECE" height="5" style="stroke: #A80036; stroke-width: 1.5;" width="10" x="303" y="754.2969"/><text fill="#000000" font-family="sans-serif" font-size="14" lengthAdjust="spacingAndGlyphs" textLength="53" x="318" y="750.9951">storage</text><!--entity result--><ellipse cx="294.25" cy="549" fill="#FEFECE" filter="url(#fmfb840lu0t86)" rx="8" ry="8" style="stroke: #A80036; stroke-width: 2.0;"/><text fill="#000000" font-family="sans-serif" font-size="14" lengthAdjust="spacingAndGlyphs" textLength="39" x="274.75" y="578.9951">result</text><!--entity collections--><rect fill="#FEFECE" filter="url(#fmfb840lu0t86)" height="36.2969" style="stroke: #000000; stroke-width: 1.5;" width="94" x="170.25" y="945"/><text fill="#000000" font-family="sans-serif" font-size="14" lengthAdjust="spacingAndGlyphs" textLength="74" x="180.25" y="967.9951">collections</text><!--entity hosts--><rect fill="#FEFECE" filter="url(#fmfb840lu0t86)" height="36.2969" style="stroke: #000000; stroke-width: 1.5;" width="59" x="300" y="945"/><text fill="#000000" font-family="sans-serif" font-size="14" lengthAdjust="spacingAndGlyphs" textLength="39" x="310" y="967.9951">hosts</text><!--entity parse_csv--><rect fill="#FEFECE" filter="url(#fmfb840lu0t86)" height="36.2969" style="stroke: #000000; stroke-width: 1.5;" width="89" x="30" y="8"/><text fill="#000000" font-family="sans-serif" font-size="14" lengthAdjust="spacingAndGlyphs" textLength="69" x="40" y="30.9951">parse_csv</text><!--entity host_queue--><path d="M11,640 L104,640 C109,640 109,653.1484 109,653.1484 C109,653.1484 109,666.2969 104,666.2969 L11,666.2969 C6,666.2969 6,653.1484 6,653.1484 C6,653.1484 6,640 11,640 " fill="#FEFECE" filter="url(#fmfb840lu0t86)" style="stroke: #A80036; stroke-width: 1.5;"/><path d="M104,640 C99,640 99,653.1484 99,653.1484 C99,666.2969 104,666.2969 104,666.2969 " fill="none" style="stroke: #A80036; stroke-width: 1.5;"/><text fill="#000000" font-family="sans-serif" font-size="14" lengthAdjust="spacingAndGlyphs" textLength="83" x="11" y="657.9951">host_queue</text><!--entity results_queue--><path d="M461,733 L570,733 C575,733 575,746.1484 575,746.1484 C575,746.1484 575,759.2969 570,759.2969 L461,759.2969 C456,759.2969 456,746.1484 456,746.1484 C456,746.1484 456,733 461,733 " fill="#FEFECE" filter="url(#fmfb840lu0t86)" style="stroke: #A80036; stroke-width: 1.5;"/><path d="M570,733 C565,733 565,746.1484 565,746.1484 C565,759.2969 570,759.2969 570,759.2969 " fill="none" style="stroke: #A80036; stroke-width: 1.5;"/><text fill="#000000" font-family="sans-serif" font-size="14" lengthAdjust="spacingAndGlyphs" textLength="99" x="461" y="750.9951">results_queue</text><!--entity created_threads--><polygon fill="#FEFECE" filter="url(#fmfb840lu0t86)" points="93,196,103,186,246,186,246,222.2969,236,232.2969,93,232.2969,93,196" style="stroke: #000000; stroke-width: 1.5;"/><line style="stroke: #000000; stroke-width: 1.5;" x1="236" x2="245" y1="196" y2="187"/><line style="stroke: #000000; stroke-width: 1.5;" x1="93" x2="236" y1="196" y2="196"/><line style="stroke: #000000; stroke-width: 1.5;" x1="236" x2="236" y1="196" y2="232.2969"/><text fill="#000000" font-family="sans-serif" font-size="14" lengthAdjust="spacingAndGlyphs" textLength="113" x="108" y="218.9951">created_threads</text><!--entity results_obj--><rect fill="#FEFECE" filter="url(#fmfb840lu0t86)" height="36.2969" style="stroke: #000000; stroke-width: 1.5;" width="95" x="508" y="530"/><text fill="#000000" font-family="sans-serif" font-size="14" lengthAdjust="spacingAndGlyphs" textLength="75" x="518" y="552.9951">results_obj</text><!--link parse_csv to host_queue--><path d="M52.5719,44.211 C35.0388,60.213 13.25,85.776 13.25,114 C13.25,114 13.25,114 13.25,549 C13.25,584.196 35.2453,621.112 48.1332,639.721 " fill="none" id="parse_csv-host_queue" style="stroke: #A80036; stroke-width: 1.0;"/><text fill="#000000" font-family="sans-serif" font-size="13" lengthAdjust="spacingAndGlyphs" textLength="92" x="14.25" y="307.0669">Entry Per Host</text><!--link created_threads to grab_host--><path d="M175.548,232.302 C188.204,277.116 216.376,376.872 226.52,412.791 " fill="none" id="created_threads-grab_host" style="stroke: #A80036; stroke-width: 1.0;"/><polygon fill="#A80036" points="227.988,417.99,229.3918,408.2417,226.6293,413.1781,221.6929,410.4156,227.988,417.99" style="stroke: #A80036; stroke-width: 1.0;"/><!--link parse_csv to created_threads--><path d="M83.1874,44.028 C99.7874,75.655 135.487,143.673 155.294,181.411 " fill="none" id="parse_csv-created_threads" style="stroke: #A80036; stroke-width: 1.0;"/><polygon fill="#A80036" points="157.629,185.858,156.9895,176.0299,155.3059,181.4304,149.9054,179.7468,157.629,185.858" style="stroke: #A80036; stroke-width: 1.0;"/><text fill="#000000" font-family="sans-serif" font-size="13" lengthAdjust="spacingAndGlyphs" textLength="108" x="126.25" y="119.0669">After Completion</text><!--link grab_host to host_queue--><path d="M216.939,437.275 C196.038,452.338 155.138,483.889 128.25,518 C98.3309,555.957 74.8118,608.382 63.8988,635.007 " fill="none" id="grab_host-host_queue" style="stroke: #A80036; stroke-width: 1.0;"/><polygon fill="#A80036" points="62.0091,639.669,69.0956,632.8293,63.8864,635.0348,61.6808,629.8256,62.0091,639.669" style="stroke: #A80036; stroke-width: 1.0;"/><polygon fill="#A80036" points="221.083,434.316,211.4343,436.2916,217.0141,437.2219,216.0838,442.8017,221.083,434.316" style="stroke: #A80036; stroke-width: 1.0;"/><text fill="#000000" font-family="sans-serif" font-size="13" lengthAdjust="spacingAndGlyphs" textLength="89" x="129.25" y="552.0669">Target Details</text><!--link grab_host to collection--><path d="M230.224,436.155 C230.096,476.875 229.522,658.77 229.32,722.696 " fill="none" id="grab_host-collection" style="stroke: #A80036; stroke-width: 1.0;"/><polygon fill="#A80036" points="229.304,727.802,233.3323,718.8146,229.3197,722.802,225.3323,718.7895,229.304,727.802" style="stroke: #A80036; stroke-width: 1.0;"/><!--link grab_host to storage--><path d="M239.347,432.273 C261.073,443.046 315.765,473.654 337.25,518 C370.387,586.396 357.591,680.489 349.247,722.805 " fill="none" id="grab_host-storage" style="stroke: #A80036; stroke-width: 1.0;"/><polygon fill="#A80036" points="348.204,727.945,353.9116,719.9186,349.1969,723.0446,346.071,718.3299,348.204,727.945" style="stroke: #A80036; stroke-width: 1.0;"/><!--link result to storage--><path d="M296.398,558.379 C303.969,587.903 329.504,687.489 339.846,727.823 " fill="none" id="result-storage" style="stroke: #A80036; stroke-width: 1.0;"/><!--link result to collection--><path d="M291.457,558.379 C281.616,587.903 248.42,687.489 234.976,727.823 " fill="none" id="result-collection" style="stroke: #A80036; stroke-width: 1.0;"/><!--link storage to hosts--><path d="M343.048,764.231 C340.348,802.932 333.804,896.721 330.802,939.7511 " fill="none" id="storage-hosts" style="stroke: #A80036; stroke-width: 1.0;"/><polygon fill="#A80036" points="330.437,944.9855,335.0536,936.2857,330.785,939.9976,327.073,935.729,330.437,944.9855" style="stroke: #A80036; stroke-width: 1.0;"/><text fill="#000000" font-family="sans-serif" font-size="13" lengthAdjust="spacingAndGlyphs" textLength="101" x="340.25" y="841.0669">Inserts/Updates</text><!--link storage to collections--><path d="M322.048,764.142 C312.136,771.64 300.235,780.434 289.25,788 C261.935,806.813 243.191,799.486 226.25,828 C205.621,862.722 208.788,911.806 212.993,939.919 " fill="none" id="storage-collections" style="stroke: #A80036; stroke-width: 1.0;"/><polygon fill="#A80036" points="213.785,944.9161,216.3271,935.401,213.0025,939.9777,208.4257,936.653,213.785,944.9161" style="stroke: #A80036; stroke-width: 1.0;"/><text fill="#000000" font-family="sans-serif" font-size="13" lengthAdjust="spacingAndGlyphs" textLength="101" x="227.25" y="841.0669">Inserts/Updates</text><!--link result to results_queue--><path d="M303.465,558.131 C337.008,587.727 452.96,690.038 497.569,729.399 " fill="none" id="result-results_queue" style="stroke: #A80036; stroke-width: 1.0;"/><polygon fill="#A80036" points="501.409,732.787,497.3066,723.8332,497.6597,729.479,492.0139,729.8321,501.409,732.787" style="stroke: #A80036; stroke-width: 1.0;"/><text fill="#000000" font-family="sans-serif" font-size="13" lengthAdjust="spacingAndGlyphs" textLength="54" x="424.25" y="657.0669">writes to</text><!--link results_obj to results_queue--><path d="M551.77,566.051 C544.234,602.979 526.468,690.031 518.836,727.427 " fill="none" id="results_obj-results_queue" style="stroke: #A80036; stroke-width: 1.0;"/><polygon fill="#A80036" points="517.786,732.572,523.5053,724.5539,518.7861,727.673,515.667,722.9538,517.786,732.572" style="stroke: #A80036; stroke-width: 1.0;"/><text fill="#000000" font-family="sans-serif" font-size="13" lengthAdjust="spacingAndGlyphs" textLength="70" x="537.25" y="657.0669">reads from</text><!--
@startuml


rectangle parse_csv
queue host_queue
queue results_queue

node created_threads
rectangle results_obj

package thread_actions {
	interface grab_host
	component collection
	component storage
	interface result
}

database jellyfish2 {
	rectangle collections
	rectangle hosts
}

parse_csv - - - host_queue : Entry Per Host

created_threads - - -> grab_host

parse_csv - - -> created_threads : After Completion

grab_host <- - -> host_queue : Target Details

grab_host - - - -> collection
grab_host - - - -> storage

result - - - storage
result - - - collection

storage - - -> hosts : Inserts/Updates
storage - -> collections : Inserts/Updates

result - - -> results_queue : writes to

results_obj - - -> results_queue : reads from

@enduml

PlantUML version 1.2018.02(Fri Mar 09 17:20:44 UTC 2018)
(GPL source distribution)
Java Runtime: Java(TM) SE Runtime Environment
JVM: Java HotSpot(TM) 64-Bit Server VM
Java Version: 1.8.0_151-b12
Operating System: Linux
OS Version: 4.4.0-101-generic
Default Encoding: UTF-8
Language: en
Country: US
--></g></svg>